<svg xmlns="http://www.w3.org/2000/svg" width="132" height="15" viewBox="0 0 132 15"><g id="Page-1" fill="none" fill-rule="evenodd"><g id="Artboard-2" fill="#FFF"><path id="Combined-Shape" d="M124.003 6.003L118.5.5 118 0l-13 13L92 0l-.5.5L79 13 66.5.5 66 0 53 13 40 0l-.5.5L27 13 14.5.5 14 0 8.203 5.797l.01.01L.01 14.01 1 15 14 2l13 13L40 2l13 13L66 2l13 13L92 2l13 13 13-13 13 13 .997-.997L124 6.007l.003-.004zm17.6-3.606L143.5.5l.5-.5 13 13 13-13 .5.5L183 13 195.5.5l.5-.5 13 13 13-13 .5.5L235 13 247.5.5l.5-.5 13 13L273.5.5l.5-.5 13 13L299.5.5l.5-.5 13 13 13-13 .5.5L339 13 351.5.5l.5-.5 13 13L377.5.5l.5-.5 13 13L403.5.5l.5-.5 13 13 13-13 .5.5L443 13 455.5.5l.5-.5 13 13 13-13 .5.5L495 13 507.5.5l.5-.5 13 13 13-13 .5.5L547 13 559.5.5l.5-.5 13 13L585.5.5l.5-.5 13 13L611.5.5l.5-.5 13 13 13-13 .5.5L651 13 663.5.5l.5-.5 13 13 13-13 .5.5L703 13 715.5.5l.5-.5 13 13 13-13 .5.5L755 13 767.5.5l.5-.5 13 13 13-13 .5.5L807 13 819.5.5l.5-.5 13 13 13-13 .5.5L859 13 871.5.5l.5-.5 13 13L897.5.5l.5-.5 13 13L923.5.5l.5-.5 13 13 13-13 .5.5L963 13 975.5.5l.5-.5 13 13L1001.5.5l.5-.5 13 13L1027.5.5l.5-.5 13 13 13-13 .5.5L1067 13 1079.5.5l.5-.5 13 13 13-13 .5.5L1119 13 1131.5.5l.5-.5 13 13 13-13 .5.5L1171 13 1183.5.5l.5-.5 13 13L1209.5.5l.5-.5 13 13L1235.5.5l.5-.5 13 13 13-13 .5.5L1275 13 1287.5.5l.5-.5 13 13L1313.5.5l.5-.5 13 13L1339.5.5l.5-.5 13 13 13-13 .5.5L1379 13 1391.5.5l.5-.5 13 13 13-13 .5.5L1431 13 1443.5.5l.5-.5 13 13 13-13 .5.5L1483 13 1495.5.5l.5-.5 13 13L1521.5.5l.5-.5 13 13L1547.5.5l.5-.5 13 13 13-13 .5.5L1587 13 1599.5.5l.5-.5 13 13L1625.5.5l.5-.5 13 13L1651.5.5l.5-.5 13 13 13-13 .5.5L1691 13 1703.5.5l.5-.5 13 13 13-13 .5.5L1743 13 1755.5.5l.5-.5 13 13 13-13 .5.5L1795 13 1807.5.5l.5-.5 13 13L1833.5.5l.5-.5 13 13L1859.5.5l.5-.5 13 13 13-13 .5.5L1899 13 1911.5.5l.5-.5 13 13 13-13 .5.5L1951 13 1963.5.5l.5-.5 13 13 13-13 .5.5L2003 13 2015.5.5l.5-.5 13 13 13-13 .5.5L2055 13 2067.5.5l.5-.5 13 13 13-13 .5.5L2107 13 2119.5.5l.5-.5 13 13L2145.5.5l.5-.5 13 13L2171.5.5l.5-.5 13 13 13-13 .5.5L2211 13 2223.5.5l.5-.5 13 13L2249.5.5l.5-.5 13 13L2275.5.5l.5-.5 13 13 13-13 .5.5L2315 13 2327.5.5l.5-.5 13 13 13-13 .5.5L2367 13 2379.5.5l.5-.5 13 13 13-13 .5.5L2419 13 2431.5.5l.5-.5 13 13L2457.5.5l.5-.5 13 13L2483.5.5l.5-.5 13 13 13-13 .5.5L2523 13 2535.5.5l.5-.5 13 13 13-13 1 1-14 14-13-13-13 13-13-13-13 13-13-13-13 13-13-13-13 13-13-13-13 13-13-13-13 13-13-13-13 13-13-13-13 13-13-13-13 13-13-13-13 13-13-13-13 13-13-13-13 13-13-13-13 13-13-13-13 13-13-13-13 13-13-13-13 13-13-13-13 13-13-13-13 13-13-13-13 13-13-13-13 13-13-13-13 13-13-13-13 13-13-13-13 13-13-13-13 13-13-13-13 13-13-13-13 13-13-13-13 13-13-13-13 13-13-13-13 13-13-13-13 13-13-13-13 13-13-13-13 13-13-13-13 13-13-13-13 13-13-13-13 13-13-13-13 13-13-13-13 13-13-13-13 13-13-13-13 13-13-13-13 13-13-13-13 13-13-13-13 13-13-13-13 13-13-13-13 13-13-13-13 13-13-13-13 13-13-13-13 13-13-13-13 13-13-13-13 13-13-13-13 13-13-13-13 13-13-13-13 13-13-13-13 13-13-13-13 13-13-13-13 13-13-13-13 13-13-13-13 13-13-13-13 13-13-13-13 13-13-13-13 13-13-13-13 13-13-13-13 13-13-13-13 13-13-13-13 13-13-13-13 13-13-13-13 13-13-13-13 13-13-13-13 13-13-13-13 13-13-13-13 13-13-13-13 13-13-13-13 13-13-13-13 13-13-13-13 13-13-13-13 13-13-13-13 13-13-13-13 13-13-13-13 13-13-13-13 13-13-13-13 13-13-13-13 13-13-13-13 13-13-13-13 13-13-13-13 13-13-13-13 13-13-13-13 13-13-13-13 13-13-13-13 13-13-13-13 13-13-13-13 13-13-13-13 13-13-13-13 13-13-13-1.397 1.397-1-1zm-151.2.006L-12 0l-.5.5L-25 13-38 0l-.5.5L-51 13-64 0l-.5.5L-77 13-89.5.5-90 0l-13 13-13-13-.5.5L-129 13-141.5.5l-.5-.5-13 13-13-13-.5.5L-181 13-193.5.5l-.5-.5-13 13-13-13-.5.5L-233 13l-13-13-.5.5L-259 13l-13-13-.5.5L-285 13-297.5.5l-.5-.5-13 13-13-13-.5.5L-337 13l-13-13-.5.5L-363 13l-13-13-.5.5L-389 13-401.5.5l-.5-.5-13 13-13-13-.5.5L-441 13-453.5.5l-.5-.5-13 13-13-13-.5.5L-493 13-505.5.5l-.5-.5-13 13-13-13-.5.5L-545 13-557.5.5l-.5-.5-13 13-13-13-.5.5L-597 13-609.5.5l-.5-.5-13 13-13-13-.5.5L-649 13l-13-13-.5.5L-675 13l-13-13-.5.5L-701 13-713.5.5l-.5-.5-13 13-13-13-.5.5L-753 13-765.5.5l-.5-.5-13 13-13-13-.5.5L-805 13-817.5.5l-.5-.5-13 13-13-13-.5.5L-857 13l-13-13-.5.5L-883 13l-13-13-.5.5L-909 13-921.5.5l-.5-.5-13 13-13-13-.5.5L-961 13l-13-13-.5.5L-987 13l-13-13-.5.5L-1013 13-1025.5.5l-.5-.5-13 13-13-13-.5.5L-1065 13-1077.5.5l-.5-.5-13 13-13-13-.5.5L-1117 13-1129.5.5l-.5-.5-13 13-13-13-.5.5L-1169 13l-13-13-.5.5L-1195 13l-13-13-.5.5L-1221 13-1233.5.5l-.5-.5-13 13-13-13-.5.5L-1273 13l-13-13-.5.5L-1299 13l-13-13-.5.5L-1325 13-1337.5.5l-.5-.5-13 13-13-13-.5.5L-1377 13-1389.5.5l-.5-.5-13 13-13-13-.5.5L-1429 13-1441.5.5l-.5-.5-13 13-13-13-.5.5L-1481 13l-13-13-.5.5L-1507 13l-13-13-.5.5L-1533 13-1545.5.5l-.5-.5-13 13-13-13-.5.5L-1585 13l-13-13-.5.5L-1611 13l-13-13-.5.5L-1637 13-1649.5.5l-.5-.5-13 13-13-13-.5.5L-1689 13-1701.5.5l-.5-.5-13 13-13-13-.5.5L-1741 13-1753.5.5l-.5-.5-13 13-13-13-.5.5L-1793 13-1805.5.5l-.5-.5-13 13-13-13-.5.5L-1845 13-1857.5.5l-.5-.5-13 13-13-13-.5.5L-1897 13l-13-13-.5.5L-1923 13l-13-13-.5.5L-1949 13-1961.5.5l-.5-.5-13 13-13-13-.5.5L-2001 13-2013.5.5l-.5-.5-13 13-13-13-.5.5L-2053 13-2065.5.5l-.5-.5-13 13-13-13-.5.5L-2105 13l-13-13-.5.5L-2131 13l-13-13-.5.5L-2157 13-2169.5.5l-.5-.5-13 13-13-13-.5.5L-2209 13l-13-13-.5.5L-2235 13l-13-13-.5.5L-2261 13-2273.5.5l-.5-.5-13 13-13-13-.5.5L-2313 13-2325.5.5l-.5-.5-13 13-13-13-.5.5L-2365 13-2377.5.5l-.5-.5-13 13-13-13-.5.5L-2417 13l-13-13-1 1 14 14 13-13 13 13 13-13 13 13 13-13 13 13 13-13 13 13 13-13 13 13 13-13 13 13 13-13 13 13 13-13 13 13 13-13 13 13 13-13 13 13 13-13 13 13 13-13 13 13 13-13 13 13 13-13 13 13 13-13 13 13 13-13 13 13 13-13 13 13 13-13 13 13 13-13 13 13 13-13 13 13 13-13 13 13 13-13 13 13 13-13 13 13 13-13 13 13 13-13 13 13 13-13 13 13 13-13 13 13 13-13 13 13 13-13 13 13 13-13 13 13 13-13 13 13 13-13 13 13 13-13 13 13 13-13 13 13 13-13 13 13 13-13 13 13 13-13 13 13 13-13 13 13 13-13 13 13 13-13 13 13 13-13 13 13 13-13 13 13 13-13 13 13 13-13 13 13 13-13 13 13 13-13 13 13 13-13 13 13 13-13 13 13 13-13 13 13 13-13 13 13 13-13 13 13 13-13 13 13 13-13 13 13 13-13 13 13 13-13 13 13 13-13 13 13 13-13 13 13 13-13 13 13 13-13 13 13 13-13 13 13 13-13 13 13 13-13 13 13 13-13 13 13 13-13 13 13 13-13 13 13 13-13 13 13 13-13 13 13 13-13 13 13 13-13 13 13 13-13 13 13 13-13 13 13 13-13 13 13 13-13 13 13 13-13 13 13 13-13 13 13 13-13 13 13 13-13 13 13 13-13 13 13 13-13 13 13 13-13 13 13 13-13 13 13 13-13 13 13 13-13 13 13 13-13 13 13 13-13 13 13 13-13 13 13 13-13 13 13 13-13 13 13 13-13 13 13 13-13 13 13 13-13 13 13 13-13 13 13 13-13 1.403 1.403 1-1z"/></g></g></svg>